<?xml version="1.0" encoding="utf-8"?>
<!-- Generator: Adobe Illustrator 18.0.0, SVG Export Plug-In . SVG Version: 6.00 Build 0)  -->
<!DOCTYPE svg PUBLIC "-//W3C//DTD SVG 1.1//EN" "http://www.w3.org/Graphics/SVG/1.1/DTD/svg11.dtd">
<svg version="1.1" id="Layer_1" xmlns="http://www.w3.org/2000/svg" xmlns:xlink="http://www.w3.org/1999/xlink" x="0px" y="0px"
	 viewBox="0 0 67.3 59" enable-background="new 0 0 67.3 59" xml:space="preserve">
<g>
	<g>
		<polygon fill="#D91F5D" points="59.6,0 67.3,29.9 59.6,59 14.3,59 14.3,0 		"/>
		<polygon fill="#D91F5D" points="7.7,0 0,29.9 7.7,59 53,59 53,0 		"/>
	</g>
	<g>
		<path fill="#FFFFFF" d="M20.8,38.4c0.2,0,0.4,0.1,0.7,0.1c0.2,0,0.5,0,0.7,0c1.3,0,2.6-0.2,3.8-0.7c1.2-0.4,2.3-1,3.3-1.8
			c-1.2,0-2.4-0.4-3.3-1.1c-1-0.7-1.6-1.7-2-2.8c0.2,0,0.3,0.1,0.5,0.1c0.2,0,0.4,0,0.5,0c0.3,0,0.5,0,0.8-0.1
			c0.2,0,0.5-0.1,0.7-0.1c-1.3-0.3-2.4-0.9-3.3-2c-0.9-1-1.3-2.2-1.3-3.6c0,0,0,0,0,0c0,0,0,0,0,0c0.4,0.2,0.8,0.4,1.2,0.5
			c0.4,0.1,0.9,0.2,1.4,0.2c-0.8-0.5-1.4-1.2-1.8-2c-0.5-0.8-0.7-1.7-0.7-2.7c0-0.5,0.1-1,0.2-1.5c0.1-0.5,0.3-0.9,0.6-1.4
			c0.7,0.8,1.5,1.6,2.4,2.3c0.9,0.7,1.8,1.3,2.8,1.8c1,0.5,2,0.9,3.2,1.2c1.1,0.3,2.3,0.5,3.4,0.5c0-0.2-0.1-0.4-0.1-0.6
			c0-0.2,0-0.4,0-0.7c0-0.8,0.1-1.5,0.4-2.2c0.3-0.7,0.7-1.3,1.2-1.8c0.5-0.5,1.1-0.9,1.8-1.2c0.7-0.3,1.4-0.4,2.2-0.4
			c0.8,0,1.6,0.2,2.3,0.5c0.7,0.3,1.3,0.8,1.8,1.3c0.7-0.1,1.3-0.3,1.9-0.5c0.6-0.2,1.2-0.5,1.7-0.8c-0.2,0.6-0.5,1.2-1,1.8
			c-0.4,0.5-0.9,1-1.5,1.4c0.6-0.1,1.1-0.2,1.7-0.3c0.6-0.2,1.1-0.3,1.6-0.6c-0.4,0.6-0.8,1.1-1.3,1.6c-0.5,0.5-1,1-1.6,1.4
			c0,0.1,0,0.2,0,0.4c0,0.1,0,0.3,0,0.4c0,1.9-0.4,3.8-1.1,5.7c-0.7,1.9-1.7,3.7-3.1,5.2c-1.4,1.6-3.1,2.8-5.1,3.8
			c-2,1-4.3,1.5-7,1.5c-0.8,0-1.6-0.1-2.4-0.2c-0.8-0.1-1.5-0.3-2.3-0.5c-0.7-0.2-1.4-0.5-2.1-0.8C22.1,39.2,21.4,38.8,20.8,38.4z"
			/>
	</g>
</g>
<g>
</g>
<g>
</g>
<g>
</g>
<g>
</g>
<g>
</g>
<g>
</g>
</svg>
