<?xml version="1.0" encoding="utf-8"?>
<!-- Generator: Adobe Illustrator 18.0.0, SVG Export Plug-In . SVG Version: 6.00 Build 0)  -->
<!DOCTYPE svg PUBLIC "-//W3C//DTD SVG 1.1//EN" "http://www.w3.org/Graphics/SVG/1.1/DTD/svg11.dtd">
<svg version="1.1" id="Layer_1" xmlns="http://www.w3.org/2000/svg" xmlns:xlink="http://www.w3.org/1999/xlink" x="0px" y="0px"
	 viewBox="0 0 70 62" enable-background="new 0 0 70 62" xml:space="preserve">
<g>
	<polygon fill="#D91C5C" points="60.8,1.8 68.5,31.7 60.8,60.7 15.5,60.7 15.5,1.8 	"/>
	<polygon fill="#D91C5C" points="8.9,1.8 1.2,31.7 8.9,60.7 54.2,60.7 54.2,1.8 	"/>
</g>
<g>
	<path fill="#FFFFFF" d="M20.5,22.2v16.5c0,1.3,0.2,2.3,0.6,3c0.1,0.4,0.5,0.8,1.1,1.4c1.1,1,2.4,1.5,3.9,1.5h17.4
		c1.6,0,2.9-0.6,4-1.7c1.1-1,1.6-2.4,1.6-4.1V22c0-1.4-0.3-2.6-1-3.5c-0.6-0.7-1.2-1.3-1.8-1.6c-0.8-0.5-1.7-0.7-2.7-0.7H26
		c-1.7,0-3.1,0.7-4.3,2.1c-0.5,0.6-0.9,1.4-1.1,2.3C20.6,20.9,20.5,21.4,20.5,22.2z M27.5,27.5C27.6,27.5,27.6,27.5,27.5,27.5
		c-0.3,1-0.5,2-0.5,3c0,2.2,0.9,4.2,2.6,5.8c1.6,1.3,3.3,2,5,2H35c1.7,0,3.4-0.6,4.9-1.9c0.6-0.5,1-1,1.2-1.3c1-1.4,1.5-2.9,1.5-4.4
		v-0.2c0-0.9-0.2-1.8-0.6-2.8h4.2c0,0,0,0,0,0v11.8c0,0.9-0.4,1.6-1.3,2.2c-0.4,0.3-1,0.4-1.8,0.4H26.5c-0.9,0-1.5-0.2-1.9-0.5
		c-0.1,0-0.3-0.2-0.7-0.6c-0.4-0.5-0.6-1.1-0.6-1.7V27.6l0,0H27.5z M34.7,25.4H35c1.3,0,2.6,0.6,3.6,1.7c0.8,1,1.3,2.1,1.3,3.4
		c0,1.2-0.4,2.3-1.3,3.4c-1.1,1.1-2.3,1.6-3.7,1.6c-1.5,0-2.7-0.6-3.8-1.8c-0.8-1-1.2-2.1-1.2-3.2c0-1.3,0.5-2.5,1.4-3.5
		C32.3,25.9,33.4,25.4,34.7,25.4z M45.8,19.4L45.8,19.4l0,4.9h0h-0.6c-0.9,0-2.3,0-4.2,0v0v-4.8C41.6,19.5,43.2,19.5,45.8,19.4z"/>
</g>
</svg>
