<?xml version="1.0" encoding="utf-8"?>
<!-- Generator: Adobe Illustrator 18.0.0, SVG Export Plug-In . SVG Version: 6.00 Build 0)  -->
<!DOCTYPE svg PUBLIC "-//W3C//DTD SVG 1.1//EN" "http://www.w3.org/Graphics/SVG/1.1/DTD/svg11.dtd">
<svg version="1.1" id="Layer_1" xmlns="http://www.w3.org/2000/svg" xmlns:xlink="http://www.w3.org/1999/xlink" x="0px" y="0px"
	 viewBox="0 0 67.3 59" enable-background="new 0 0 67.3 59" xml:space="preserve">
<g>
	<g>
		<polygon fill="#D91F5D" points="59.6,0 67.3,29.9 59.6,59 14.3,59 14.3,0 		"/>
		<polygon fill="#D91F5D" points="7.7,0 0,29.9 7.7,59 53,59 53,0 		"/>
	</g>
	<g>
		<path fill="#FFFFFF" d="M26.4,25.8h4.3v-3.6c0-1,0.2-2,0.5-2.8c0.3-0.8,0.7-1.5,1.3-2.1c0.6-0.6,1.2-1,2-1.3
			c0.8-0.3,1.6-0.4,2.6-0.4c0.9,0,1.7,0,2.4,0.1c0.7,0.1,1.2,0.1,1.4,0.1v4.8l-2.6-0.2c-1,0-1.7,0.2-2,0.7c-0.3,0.5-0.5,1-0.5,1.7
			v3.1h4.9L40,30.7h-4.3v12.7h-5.1V30.7h-4.3V25.8z"/>
	</g>
</g>
<g>
</g>
<g>
</g>
<g>
</g>
<g>
</g>
<g>
</g>
<g>
</g>
</svg>
