<?xml version="1.0" encoding="utf-8"?>
<!-- Generator: Adobe Illustrator 18.0.0, SVG Export Plug-In . SVG Version: 6.00 Build 0)  -->
<!DOCTYPE svg PUBLIC "-//W3C//DTD SVG 1.1//EN" "http://www.w3.org/Graphics/SVG/1.1/DTD/svg11.dtd">
<svg version="1.1" id="Layer_1" xmlns="http://www.w3.org/2000/svg" xmlns:xlink="http://www.w3.org/1999/xlink" x="0px" y="0px"
	 viewBox="0 0 101.8 46.2" enable-background="new 0 0 101.8 46.2" xml:space="preserve">
<g>
	<g>
		<g>
			<path fill="#343433" d="M54,22.4l0.6,0c0.3,0,0.4-0.1,0.4-0.5v-7.4L54,14.5v-1.4h2.9l4.5,7.3h0v-5.9l-1.1-0.1v-1.4h3.9v1.3
				l-0.6,0c-0.2,0-0.4,0.2-0.4,0.5v8.8h-1.9l-4.6-7.4h0v6l1,0v1.4H54V22.4z"/>
			<path fill="#343433" d="M73.7,23.7h-2.6v-1c-0.6,0.8-1.5,1.2-2.6,1.2c-1.6,0-2.5-0.9-2.5-2.8v-3.7c0-0.3-0.1-0.4-0.4-0.4l-0.5,0
				v-1.3h2.8v5.1c0,1,0.2,1.7,1.2,1.7c1.1,0,1.7-0.7,1.7-1.6v-3.4c0-0.3-0.1-0.5-0.4-0.5l-0.5,0v-1.3h2.8v6.3c0,0.3,0.1,0.4,0.4,0.5
				l0.6,0V23.7z M69.8,11.2l0.7,0.3c0.7,0.3,0.5,0.8,0.1,1.3l-2,2l-0.6-0.5L69.8,11.2z"/>
			<path fill="#343433" d="M80.4,21.8l0.7,1.2c-0.6,0.5-1.6,0.9-2.8,0.9c-2.3,0-3.7-1.5-3.7-4.1c0-3.2,2-4.4,3.8-4.4
				c1,0,1.7,0.2,2.5,0.7v2.1l-1.5,0.1v-0.8c0-0.3,0-0.4-0.3-0.5c-0.2-0.1-0.4-0.1-0.6-0.1c-1.3,0-1.9,1-1.9,2.7
				c0,1.7,0.6,2.9,2.1,2.9C79.2,22.5,79.8,22.3,80.4,21.8z"/>
			<path fill="#343433" d="M85,22.4l0.9,0v1.3h-3.8v-1.2l0.5-0.1c0.3,0,0.5-0.1,0.5-0.5v-7.9c0-0.3-0.2-0.4-0.4-0.4l-0.6,0v-1.3H85
				V22.4z"/>
			<path fill="#343433" d="M93.5,17.7c0,2.5-2.7,2.9-4.5,2.9c0.1,1,0.6,1.9,2,1.9c0.9,0,1.6-0.4,2-0.7l0.6,1.3
				c-0.3,0.2-1.3,0.9-2.8,0.9c-2.7,0-3.8-1.7-3.8-4c0-2.4,1.3-4.4,3.9-4.4C92.4,15.4,93.5,16.2,93.5,17.7z M90.8,16.8
				c-1.3,0-1.9,1.2-1.9,2.4c1.2,0,2.9-0.3,2.9-1.5C91.7,17.1,91.3,16.8,90.8,16.8z"/>
			<path fill="#343433" d="M98.2,15.4c1.2,0,3.6,0.4,3.6,4c0,3.1-1.7,4.5-3.8,4.5c-2.1,0-3.5-1.4-3.5-4.3
				C94.4,16.4,96.6,15.4,98.2,15.4z M99.8,19.7c0-1.8-0.4-2.9-1.7-2.9c-1.3,0-1.8,1.1-1.8,2.6c0,1.5,0.2,3.1,1.7,3.1
				C99.3,22.5,99.8,21.4,99.8,19.7z"/>
		</g>
		<g>
			<path fill="#343433" d="M54.1,35.7l0.5,0c0.3,0,0.5-0.1,0.5-0.4v-7.4l-0.9,0v-1.4h4.4c3,0,5,1.6,5,4.9c0,4.2-2.3,5.7-4.9,5.7
				h-4.5V35.7z M57.1,35.5h1.6c1.8,0,2.9-1.3,2.9-3.9c0-2.9-1.4-3.7-3.1-3.7h-1.4V35.5z"/>
			<path fill="#343433" d="M67.6,35.7l0.9,0V37h-3.8v-1.2l0.5,0c0.3,0,0.5-0.1,0.5-0.5v-4.4c0-0.4-0.1-0.5-0.4-0.5l-0.6,0V29h2.9
				V35.7z M66.5,25.6c0.7,0,1.2,0.5,1.2,1.2c0,0.7-0.5,1.2-1.2,1.2c-0.7,0-1.2-0.5-1.2-1.2C65.2,26.1,65.7,25.6,66.5,25.6z"/>
			<path fill="#343433" d="M69.8,39.9v-2.2l1.5-0.1v0.8c0,0.3,0.1,0.5,0.4,0.6C72,39,72.4,39,72.9,39c1.5,0,1.8-1,1.8-2.3v-0.9
				c-0.5,0.6-1.3,0.9-2.1,0.9c-2.3,0-3.1-1.9-3.1-3.7c0-2.9,1.7-4.2,4.1-4.2c0.8,0,2,0.2,2.9,0.6v5.9c0,0.6,0,1.2,0,1.7
				c-0.2,2.3-1.3,3.4-3.7,3.4C71.8,40.4,70.5,40.2,69.8,39.9z M74.7,30.3c-0.4-0.1-0.8-0.2-1.3-0.2c-1.3,0-2,1-2,2.7
				c0,1.1,0.2,2.5,1.7,2.5c0.9,0,1.6-0.6,1.6-1.6V30.3z"/>
			<path fill="#343433" d="M81,35.7l0.9,0V37h-3.8v-1.2l0.5,0c0.3,0,0.5-0.1,0.5-0.5v-4.4c0-0.4-0.1-0.5-0.4-0.5l-0.6,0V29H81V35.7z
				 M79.9,25.6c0.7,0,1.2,0.5,1.2,1.2c0,0.7-0.5,1.2-1.2,1.2c-0.7,0-1.2-0.5-1.2-1.2C78.6,26.1,79.1,25.6,79.9,25.6z"/>
			<path fill="#343433" d="M85.6,27.3V29h2.1l-0.2,1.3h-2v4.2c0,1,0.4,1.3,1,1.3c0.4,0,0.8-0.2,1.1-0.3l0.5,1.2
				c-0.5,0.3-1.3,0.6-2,0.6c-2.5,0-2.5-1.5-2.5-2.6v-4.3h-1.1l0.2-1.2c1.1-0.1,1.5-1,1.8-1.9H85.6z"/>
			<path fill="#343433" d="M96,35.2c0,0.3,0.1,0.4,0.4,0.5l0.5,0V37h-2.5v-0.9l0,0c-0.5,0.7-1.3,1.1-2.2,1.1c-2.2,0-3.2-1.6-3.2-3.9
				c0-2.8,1.3-4.6,4.2-4.6c0.5,0,1.7,0.1,2.8,0.6V35.2z M94.1,30.3c-0.2-0.1-0.7-0.2-1.2-0.2c-1.5,0-2,1.4-2,3.1
				c0,1.3,0.3,2.6,1.7,2.6c1,0,1.6-0.7,1.6-1.4V30.3z"/>
			<path fill="#343433" d="M100.7,35.7l0.9,0V37h-3.8v-1.2l0.5,0c0.3,0,0.5-0.1,0.5-0.5v-7.9c0-0.3-0.2-0.4-0.4-0.4l-0.6,0v-1.3h2.9
				V35.7z"/>
		</g>
	</g>
	<g>
		<path fill="#343433" d="M23.1,2.1c-11.6,0-21,9.4-21,21c0,11.6,9.4,21,21,21c11.6,0,21-9.4,21-21C44.2,11.5,34.7,2.1,23.1,2.1z
			 M12.9,38.1c0,0-1.1,0.8-1.7-0.2c-0.6-1.1,0.1,0.1-1.5-2.9c0,0-0.6-1.2-0.2-2.3c0.7-1.6,1.5-5.4,2.1-7.1c0.6-1.5,1.1-0.4,1.1-0.4
			s0.9,6.6,2.5,8.7C15.3,33.8,11.7,34.6,12.9,38.1z M18.7,37.5c-1.2,0-1.5-0.8-1.6-1c-0.2-0.4-0.5-1.4-0.5-1.4
			c-0.2-0.7,0.6-0.6,0.6-0.6s1.1,0,1.4,0c0.3,0,0.6,0.7,0.9,1.5c0.3,0.8,0.7,1.6,0.7,1.6H18.7z M24.2,38.4c-0.3,0.3-0.4,0.5-0.7,0.5
			h-0.7c-0.2,0-0.4-0.2-0.7-0.5c-0.7-1-1.1-2-1.9-3.4c0,0-0.5-1.2-0.1-2.3c0.6-1.6,2.1-5.4,2.7-7.1c0.2-0.5,0.2-0.7,0.4-0.8
			c0.1,0,0.2,0.2,0.4,0.8c0.6,1.8,2.1,5.5,2.7,7.1c0.4,1.1-0.1,2.3-0.1,2.3C25.5,36.3,25.1,37.3,24.2,38.4z M29.8,35.1
			c0,0-0.3,1-0.5,1.4c-0.1,0.3-0.4,1-1.6,1h-1.5c0,0,0.4-0.8,0.7-1.6c0.3-0.7,0.6-1.5,0.9-1.5c0.3,0,1.4,0,1.4,0S30,34.4,29.8,35.1z
			 M29.4,33.3h-2c0,0,0-0.3-0.3-1.6c-0.3-1.3-2.6-7.1-2.6-7.1s-0.3-0.6-0.8-0.8c-0.5-0.1-0.5-0.1-0.5-0.1s-0.1,0-0.5,0.1
			c-0.5,0.3-0.8,0.8-0.8,0.8s-2.3,5.8-2.6,7.1C19,33,19,33.3,19,33.3H17c0,0-1,0.1-1.4-0.9c-0.4-1-3.1-9.6-1-16.3
			c2.1-6.7,6.6-10.4,7.3-10.9c0.5-0.4,0.9-0.6,1.2-0.7c0,0,0,0,0,0c0,0,0.1,0,0.1,0l0,0l0,0c0,0,0.1,0,0.1,0l0,0
			c0.3,0,0.6,0.3,1.2,0.7c0.7,0.5,5.1,4.2,7.3,10.9c2.1,6.7-0.6,15.3-1,16.3C30.4,33.4,29.4,33.3,29.4,33.3z M36.5,35
			c-1.6,3-0.9,1.9-1.5,2.9c-0.6,1.1-1.7,0.2-1.7,0.2c1.2-3.5-2.3-4.3-2.3-4.3c1.7-2.1,2.5-8.7,2.5-8.7s0.5-1.1,1,0.4
			c0.7,1.8,1.5,5.5,2.1,7.1C37.1,33.8,36.5,35,36.5,35z"/>
		<path fill="#343433" d="M23.1,8.7c-1,0-1.8,0.8-1.8,1.8c0,0.4,0.1,0.7,0.3,1l-0.1,0.1c-0.7,0.8-1.7,2-2.5,3.7c0,0-0.1,0-0.1,0
			c-0.8,0-1.5,0.7-1.5,1.5c0,0.5,0.2,0.9,0.6,1.2c-0.5,1.3-0.8,2.6-1,4.1c-0.5,0.1-0.9,0.6-0.9,1.2c0,0.7,0.6,1.3,1.3,1.3
			c0.7,0,1.3-0.6,1.3-1.3c0-0.5-0.4-1-0.8-1.2c0.1-1.3,0.4-2.6,0.9-3.8c0,0,0.1,0,0.1,0l0,0c0.8,0,1.5-0.7,1.5-1.5
			c0-0.5-0.2-0.9-0.6-1.2c0.7-1.5,1.7-2.6,2.3-3.4l0,0c0.3,0.2,0.6,0.3,0.9,0.3c1,0,1.8-0.8,1.8-1.8C24.9,9.5,24.1,8.7,23.1,8.7z
			 M18,23c0,0.3-0.2,0.5-0.5,0.5c-0.3,0-0.5-0.2-0.5-0.5c0-0.3,0.2-0.5,0.5-0.5C17.8,22.5,18,22.7,18,23z M18.7,17.2
			c-0.3-0.1-0.4-0.4-0.4-0.6c0-0.4,0.3-0.7,0.7-0.7c0.4,0,0.7,0.3,0.7,0.7C19.7,17.1,19.1,17.4,18.7,17.2z M23.1,11.4
			c-0.6,0-1-0.5-1-1c0-0.6,0.5-1,1-1c0.6,0,1,0.5,1,1C24.1,11,23.7,11.4,23.1,11.4z"/>
		<path fill="#343433" d="M23.1,0C10.4,0,0,10.4,0,23.1c0,12.7,10.4,23.1,23.1,23.1s23.1-10.4,23.1-23.1C46.2,10.4,35.9,0,23.1,0z
			 M23.1,45.5c-12.3,0-22.4-10-22.4-22.4c0-12.3,10-22.4,22.4-22.4s22.4,10,22.4,22.4C45.5,35.4,35.4,45.5,23.1,45.5z"/>
	</g>
</g>
<g>
</g>
<g>
</g>
<g>
</g>
<g>
</g>
<g>
</g>
<g>
</g>
</svg>
